<!-- Generated by IcoMoon.io -->
<svg version="1.1" xmlns="http://www.w3.org/2000/svg" width="1024" height="1024" viewBox="0 0 1024 1024">
<title></title>
<g id="icomoon-ignore">
</g>
<path fill="#0769ad" d="M65.451 250.624c-90.581 130.133-79.36 299.392-10.112 437.589 1.579 3.371 3.328 6.571 5.035 9.771 0.981 2.219 2.091 4.267 3.285 6.357 0.555 1.195 1.323 2.432 2.005 3.541 1.109 2.219 2.304 4.352 3.456 6.485l6.699 11.307c1.237 2.091 2.432 4.139 3.84 6.229 2.347 4.011 5.12 7.979 7.552 11.989 1.109 1.664 2.133 3.328 3.371 4.992 4.744 7.429 9.1 13.604 13.699 19.583l-0.472-0.639c3.328 4.565 6.656 9.003 10.24 13.44 1.152 1.621 2.432 3.243 3.627 4.864l9.429 11.477c1.152 1.323 2.304 2.859 3.541 4.224 4.181 5.035 8.619 9.941 13.056 14.891 0 0.085 0.128 0.171 0.213 0.299 5.515 6.937 11.444 13.083 17.91 18.622l0.181 0.151c3.413 3.499 6.827 6.997 10.453 10.411l4.309 4.139c4.736 4.437 9.472 8.875 14.464 13.141 0.085 0 0.128 0.085 0.213 0.128l2.432 2.133c4.352 3.797 8.747 7.595 13.227 11.093l5.333 4.48c3.627 2.901 7.381 5.675 11.093 8.533l5.803 4.437c3.968 2.987 8.192 5.931 12.245 8.832 1.493 1.067 2.987 2.133 4.523 3.115l1.237 0.981 11.989 7.893 5.12 3.413c6.272 4.011 12.501 7.808 18.688 11.563 1.792 0.896 3.584 1.877 5.248 2.901 4.608 2.645 9.387 5.333 14.037 7.808 2.56 1.451 5.205 2.688 7.851 4.011 3.2 1.792 6.528 3.541 9.941 5.333 0.922 0.284 1.714 0.617 2.464 1.018l-0.074-0.036c1.408 0.64 2.731 1.323 4.096 2.005 5.12 2.56 10.453 4.992 16 7.424 1.024 0.427 2.133 0.853 3.243 1.451 6.144 2.688 12.288 5.248 18.645 7.765 1.451 0.427 2.987 1.152 4.48 1.707 5.76 2.176 11.691 4.395 17.536 6.485l2.133 0.768c6.528 2.219 12.971 4.352 19.584 6.4 1.536 0.427 3.115 0.981 4.736 1.408 6.784 2.048 13.355 4.48 20.181 5.803 437.76 79.787 564.992-263.211 564.992-263.211-106.88 139.179-296.533 175.872-476.16 135.040-6.656-1.536-13.312-3.669-20.011-5.632-12.213-3.523-20.264-6.157-28.234-8.962l4.042 1.239-2.645-1.024c-5.803-1.963-11.392-4.139-17.067-6.315-1.075-0.477-2.629-1.069-4.209-1.606l-0.485-0.143c-6.272-2.517-12.373-5.12-18.432-7.808-1.323-0.427-2.432-1.024-3.755-1.536-11.195-4.964-16.254-7.391-21.289-9.86l5.886 2.607c-1.579-0.683-2.987-1.408-4.523-2.219-4.011-1.877-8.021-4.011-11.947-6.059-3.648-1.737-6.263-3.103-8.837-4.534l0.858 0.438c-4.821-2.56-9.643-5.333-14.464-7.979-1.451-1.024-3.115-1.877-4.779-2.816-9.234-5.41-15.333-9.205-21.366-13.094l2.678 1.616c-2.051-1.276-3.692-2.387-5.294-3.55l0.259 0.179c-5.51-3.395-9.851-6.294-14.095-9.32l0.783 0.53c-1.493-0.981-2.859-2.048-4.395-3.115-5.455-3.768-9.54-6.741-13.566-9.786l1.022 0.741c-1.792-1.451-3.712-2.816-5.632-4.267-3.755-2.944-7.552-5.76-11.307-8.875l-5.035-4.011c-5.554-4.486-10.192-8.408-14.749-12.42l0.498 0.43c-0.472-0.462-0.988-0.883-1.54-1.255l-0.039-0.025-14.805-13.483-4.267-4.011c-3.499-3.541-7.083-6.955-10.667-10.453l-4.139-4.267c-4.421-4.399-8.721-8.889-12.913-13.48l-0.271-0.301-0.64-0.683c-4.523-4.949-8.917-9.984-13.355-15.104-1.152-1.323-2.219-2.731-3.413-4.139l-9.643-11.819c-3.354-4.199-8.113-10.421-12.792-16.705l-1.715-2.409c-99.627-136.021-135.68-323.755-55.936-477.739zM346.496 141.013c-65.664 94.251-61.952 220.288-10.837 319.957 9.468 18.681 19.064 34.49 29.699 49.509l-0.814-1.211c9.813 14.080 20.651 30.72 33.792 42.069 4.565 5.205 9.515 10.24 14.677 15.317l3.84 3.84c4.864 4.693 9.856 9.301 14.933 13.867l0.64 0.555c5.135 4.509 10.885 9.285 16.762 13.908l0.902 0.684c1.451 0.981 2.688 2.133 4.096 3.115 5.973 4.608 11.989 9.045 18.219 13.44l0.64 0.384c2.645 1.92 5.461 3.669 8.448 5.547 1.195 0.768 2.56 1.792 3.84 2.56 4.523 2.901 8.96 5.632 13.525 8.405 0.725 0.299 1.365 0.683 2.048 0.981 3.84 2.347 8.021 4.608 12.032 6.699 1.408 0.853 2.773 1.493 4.224 2.304 2.859 1.408 5.675 2.901 8.405 4.352l1.365 0.597c5.76 2.816 11.648 5.461 17.408 8.107 1.451 0.555 2.688 1.024 3.925 1.621 4.736 2.048 9.557 4.011 14.293 5.845 2.133 0.725 4.139 1.579 6.144 2.219 4.352 1.621 8.917 3.115 13.227 4.608l5.973 1.92c6.229 1.92 12.544 4.437 19.115 5.504 337.92 56.021 416.171-204.245 416.171-204.245-70.443 101.376-206.763 149.675-352.043 111.957-8.85-2.258-15.233-4.159-21.535-6.238l2.421 0.692c-2.048-0.555-3.84-1.195-5.803-1.792-4.437-1.536-9.003-3.029-13.312-4.651l-6.144-2.304c-4.779-1.92-9.643-3.712-14.293-5.76-1.451-0.64-2.773-1.067-3.883-1.707-5.973-2.688-11.989-5.333-17.792-8.192l-8.789-4.565-5.077-2.56c-3.925-2.048-7.552-4.181-11.307-6.4-1.052-0.503-1.919-0.986-2.754-1.515l0.108 0.064c-4.523-2.816-9.216-5.547-13.525-8.448-1.451-0.811-2.773-1.792-4.139-2.645l-8.875-5.803c-6.144-4.267-12.16-8.875-18.219-13.312-1.365-1.237-2.688-2.261-4.011-3.371-63.872-50.219-114.261-118.869-138.155-196.608-25.173-80.811-19.627-171.435 23.851-244.992zM582.827 59.051c-38.741 56.832-42.453 127.403-15.787 190.080 28.331 66.56 86.272 118.827 153.771 143.573 2.773 1.067 5.461 1.963 8.32 2.987l3.755 1.152c3.925 1.237 7.893 2.688 11.947 3.584 186.709 36.011 237.227-95.872 250.837-115.243-44.459 63.829-118.997 79.147-210.432 56.917-8.94-2.239-16.282-4.577-23.435-7.301l1.419 0.474c-10.798-3.798-19.492-7.456-27.941-11.542l1.615 0.704c-17.602-8.611-32.708-17.983-46.768-28.661l0.688 0.501c-81.92-62.037-132.651-180.48-79.232-276.949z"></path>
</svg>
