<!-- Generated by IcoMoon.io -->
<svg version="1.1" xmlns="http://www.w3.org/2000/svg" width="1024" height="1024" viewBox="0 0 1024 1024">
<title></title>
<g id="icomoon-ignore">
</g>
<path fill="#393" d="M511.915 1024c-13.696 0-27.349-3.584-39.339-10.539l-125.269-74.112c-18.688-10.453-9.557-14.165-3.413-16.341 24.96-8.661 29.995-10.667 56.661-25.771 2.773-1.579 6.443-0.981 9.301 0.725l96.256 57.131c3.499 1.92 8.405 1.92 11.605 0l375.253-216.576c3.499-2.005 5.717-6.016 5.717-10.155v-433.067c0-4.224-2.261-8.192-5.845-10.325l-375.083-216.405c-3.456-2.005-8.064-2.005-11.563 0l-374.997 216.448c-3.627 2.091-5.931 6.187-5.931 10.283v433.067c0 4.139 2.304 8.064 5.931 10.027l102.784 59.392c55.765 27.904 89.941-4.949 89.941-37.973v-427.563c0-6.059 4.864-10.795 10.923-10.795h47.573c5.931 0 10.88 4.779 10.88 10.795v427.563c0 74.453-40.533 117.12-111.104 117.12-21.675 0-38.784 0-86.443-23.509l-98.475-56.619c-24.32-14.037-39.339-40.32-39.339-68.437v-433.067c0-28.117 15.061-54.4 39.339-68.395l375.253-216.832c23.765-13.44 55.296-13.44 78.848 0l375.211 216.832c24.32 14.037 39.424 40.277 39.424 68.395v433.067c0 28.117-15.104 54.315-39.424 68.437l-375.211 216.661c-11.947 6.955-25.557 10.539-39.467 10.539zM814.891 597.035c0-81.067-54.784-102.656-170.112-117.888-116.523-15.403-128.384-23.381-128.384-50.645 0-22.528 10.027-52.608 96.341-52.608 77.099 0 105.515 16.597 117.205 68.565 1.024 4.907 5.504 8.491 10.539 8.491h48.683c3.029 0 5.888-1.323 7.936-3.456 2.048-2.304 3.157-5.248 2.859-8.363-7.552-89.515-67.029-131.243-187.221-131.243-107.008 0-170.837 45.141-170.837 120.875 0 82.133 63.488 104.832 166.187 114.987 122.88 12.032 132.395 29.995 132.395 54.144 0 41.941-33.664 59.819-112.725 59.819-99.285 0-121.131-24.917-128.469-74.325-0.853-5.291-5.376-9.173-10.795-9.173h-48.512c-6.016 0-10.837 4.779-10.837 10.795 0 63.232 34.389 138.581 198.613 138.581 118.955 0.043 187.136-46.763 187.136-128.555z"></path>
</svg>
