<!-- Generated by IcoMoon.io -->
<svg version="1.1" xmlns="http://www.w3.org/2000/svg" width="1024" height="1024" viewBox="0 0 1024 1024">
<title></title>
<g id="icomoon-ignore">
</g>
<path fill="#007acc" d="M0 512v512h1024v-1024h-1024zM825.216 471.211c26.027 6.485 45.824 18.048 64.043 36.907 9.429 10.069 23.424 28.416 24.533 32.853 0.341 1.28-44.203 31.147-71.168 47.915-0.981 0.64-4.907-3.584-9.259-10.069-13.227-19.2-27.008-27.477-48.128-28.928-31.061-2.133-51.029 14.123-50.859 41.259-0.021 0.475-0.034 1.031-0.034 1.59 0 6.444 1.624 12.51 4.484 17.809l-0.098-0.199c6.827 14.123 19.541 22.613 59.307 39.808 73.344 31.573 104.704 52.352 124.203 81.92 21.76 32.981 26.667 85.675 11.861 124.843-16.213 42.581-56.533 71.509-113.28 81.067-17.536 3.115-59.136 2.645-77.995-0.768-41.131-7.339-80.128-27.648-104.192-54.315-9.429-10.368-27.819-37.547-26.667-39.467 0.469-0.683 4.693-3.285 9.387-6.016 4.608-2.603 21.803-12.544 38.059-21.973l29.44-17.067 6.187 9.131c8.619 13.141 27.435 31.189 38.827 37.205 32.683 17.237 77.525 14.805 99.627-5.035 8.22-6.956 13.403-17.28 13.403-28.814 0-0.67-0.018-1.337-0.052-1.998l0.004 0.093c0-11.861-1.493-17.067-7.68-26.027-7.936-11.349-24.192-20.907-70.357-40.96-52.821-22.741-75.563-36.864-96.384-59.307-12.556-14.254-22.22-31.382-27.871-50.244l-0.246-0.956c-3.883-14.464-4.864-50.731-1.792-65.323 10.88-51.072 49.408-86.613 105.003-97.195 18.048-3.413 59.989-2.133 77.696 2.261zM584.832 513.963l0.341 41.941h-133.333v378.709h-94.293v-378.709h-133.205v-41.131c0-22.784 0.469-41.813 1.109-42.24 0.512-0.683 81.621-1.024 179.925-0.853l178.987 0.512z"></path>
</svg>
